<svg xmlns="http://www.w3.org/2000/svg" xmlns:xlink="http://www.w3.org/1999/xlink" width="40" height="40" viewBox="0 0 40 40">
  <defs>
    <polygon id="erlang-a" points="0 0 36 0 36 24 0 24"/>
  </defs>
  <g fill="none" fill-rule="evenodd" transform="translate(2 8)">
    <mask id="erlang-b" fill="#fff">
      <use xlink:href="#erlang-a"/>
    </mask>
    <path fill="#A90533" d="M31.4521,24 C32.6561,22.643 33.7341,21.043 34.7121,19.215 L29.2881,16.358 C27.3841,19.62 24.5981,22.622 20.7461,22.642 C15.1401,22.622 12.9361,17.573 12.9491,11.075 L33.8981,11.075 C33.9271,10.341 33.9271,10 33.8981,9.646 C34.0351,5.78 33.0621,2.531 31.2921,0 L31.2831,0.007 L36.0001,0.007 L36.0001,23.999 L31.4421,23.999 L31.4521,24 Z M5.6451,23.998 C2.8501,20.88 1.2161,16.571 1.2211,11.432 C1.2171,6.886 2.5721,2.979 4.9041,0.006 L4.9001,0.007 L0.0001,0.007 L0.0001,23.998 L5.6411,23.998 L5.6451,23.998 Z" mask="url(#erlang-b)"/>
    <path fill="#A90533" d="M13.2881,5.5054 C13.5201,2.5634 15.7231,0.5844 18.3051,0.5784 C20.9051,0.5844 22.7841,2.5634 22.8481,5.5054 L13.2881,5.5054 Z"/>
  </g>
</svg>
